<svg width="122" height="47" viewBox="0 0 122 47" fill="none" xmlns="http://www.w3.org/2000/svg">
<path fill-rule="evenodd" clip-rule="evenodd" d="M25.162 0.811381L38.6972 7.20834C41.5943 8.57713 43.3285 11.3013 43.3285 14.4833V24.7863C43.3285 27.9662 41.7276 30.9654 38.6972 32.0616L25.0365 37.0066V29.7488L32.4277 27.487C34.3859 26.8884 35.3542 24.9001 35.3542 22.8902V16.3791C35.3542 14.3699 34.2582 12.6469 32.4277 11.7823L23.8745 7.74035C22.4288 7.05736 20.9004 7.05705 19.4543 7.74035L10.9009 11.7823C9.07031 12.6472 7.97496 14.3686 7.97496 16.3791V22.8902C7.97496 24.8985 9.28399 26.3111 10.9009 27.487L25.0443 37.7806L25.1041 46.4234L4.63105 32.0616C2.03739 30.2421 0 27.9684 0 24.7863V14.4833C0 11.3013 1.73422 8.57745 4.63105 7.20834L18.1669 0.811381C20.4555 -0.27046 22.8733 -0.27046 25.162 0.811381Z" fill="#0A32F8"/>
<path d="M116.85 16.1252H122V20.6985H116.85V28.5774C116.85 30.4991 117.734 31.3831 119.656 31.3831H122V35.9573H119.656C114.198 35.9573 111.662 33.4199 111.662 28.2698V20.6985H100.824V28.5784C100.824 30.4997 101.708 31.384 103.629 31.384H105.974V35.9573H103.629C98.172 35.9572 95.6354 33.4206 95.6353 28.2708V20.6985H91.6382V16.1252H95.6353V10.2834L100.824 8.66919V16.1252H111.662V10.2834L116.85 8.66919V16.1252Z" fill="#0A32F8"/>
<path d="M83.8296 35.9574V16.1255H89.0181V35.9574H83.8296ZM83.2915 10.6295C83.2915 8.89997 84.7136 7.51636 86.4431 7.51636C88.1342 7.51636 89.5562 8.89997 89.5562 10.6295C89.5562 12.3206 88.1342 13.7426 86.4431 13.7426C84.7136 13.7426 83.2915 12.3206 83.2915 10.6295Z" fill="#0A32F8"/>
<path d="M75.9235 38.9934L72.5413 34.9963C70.6965 35.8419 68.5826 36.3415 66.315 36.3415C58.3208 36.3415 52.1714 30.3074 52.1714 22.5054C52.1714 14.7033 58.3208 8.66919 66.315 8.66919C74.3092 8.66919 80.4587 14.7033 80.4587 22.5054C80.4587 26.195 79.075 29.5003 76.769 31.9601L79.8821 35.6497L75.9235 38.9934ZM57.8596 22.5054C57.8596 27.4633 61.5492 31.3067 66.315 31.3067C67.2759 31.3067 68.1983 31.153 69.0823 30.8455L65.8538 27.0405L69.8125 23.6968L73.1947 27.7323C74.1939 26.2719 74.7705 24.4655 74.7705 22.5054C74.7705 17.5474 71.1192 13.704 66.315 13.704C61.5492 13.704 57.8596 17.5474 57.8596 22.5054Z" fill="#0A32F8"/>
</svg>
